<?xml version="1.0" encoding="UTF-8"?>
<svg width="768" height="768" viewBox="0 0 768 768" xmlns="http://www.w3.org/2000/svg">
  <defs>
    <linearGradient id="cloudGradient" x1="0%" y1="0%" x2="100%" y2="100%">
      <stop offset="0%" stop-color="#ffffff" stop-opacity="1"/>
      <stop offset="70%" stop-color="#f5f5f5" stop-opacity="0.92"/>
      <stop offset="100%" stop-color="#f0f0f0" stop-opacity="0.88"/>
    </linearGradient>
    <filter id="cloudShadow" x="-20%" y="-20%" width="140%" height="140%">
      <feDropShadow dx="0" dy="12" stdDeviation="12" flood-color="rgba(0,0,0,0.25)"/>
    </filter>
  </defs>

  <rect width="768" height="768" fill="#d47832"/>

  <g filter="url(#cloudShadow)">
    <path d="M192 448h384c53 0 96-43 96-96s-43-96-96-96c-8.7 0-17.1 1.1-25.2 3.2C529 198 469 160 400 160c-74.6 0-137.2 47.5-160 113.5-7.6-1.6-15.5-2.5-23.6-2.5-53 0-96 43-96 96s43 81 72 81z" fill="url(#cloudGradient)"/>
  </g>

  <path d="M384 266l-96 112h64v124h64V378h64z" fill="#ffffff"/>
  <path d="M384 534l96-112h-64V298h-64v124h-64z" fill="#ffffff" opacity="0.9"/>
</svg>



